# xmcd
#
# Track frame offsets: 
#        150
#        15196
#        27267
#        45746
#        63467
#        76551
#        95624
#        112698
#        128671
#        144797
#        166218
#        187641
#        198038
#        211936
#        226242
#        240932
#        255279
#        268868
#        292192
#        303404
#        327573
#
# Disc length: 4576 seconds
#
# Revision: 0
# Processed by: cddbd v1.5.2PL0 Copyright (c) Steve Scherf et al.
# Submitted via: ExactAudioCopyFreeDBPlugin 1.0
#
DISCID=0211de15
DTITLE=The Long Ryders - Final Wild Songs
DYEAR=2016
DGENRE=Country
TTITLE0=Gunslinger Man
TTITLE1=I Want You Bad
TTITLE2=A Stitch In Time
TTITLE3=The Light Gets In The Way
TTITLE4=Prairie Fire
TTITLE5=Baby's In Toyland
TTITLE6=Long Story Short
TTITLE7=Man Of Misery
TTITLE8=Harriet Tubman's Gonna Carry Me Home
TTITLE9=The Rest Of My Days
TTITLE10=Spectacular Fall
TTITLE11=Ring Bells
TTITLE12=17 Ways
TTITLE13=Basic Black
TTITLE14=Pushin' Uphill
TTITLE15=How Do We Feel What's Real?
TTITLE16=He's Got Himself A Young Girl (And He Can't Keep Up)
TTITLE17=He Can Hear His Brother Calling
TTITLE18=Sad Sad Songs
TTITLE19=Flak Jacket
TTITLE20=Blues Theme
EXTD=
EXTT0=
EXTT1=
EXTT2=
EXTT3=
EXTT4=
EXTT5=
EXTT6=
EXTT7=
EXTT8=
EXTT9=
EXTT10=
EXTT11=
EXTT12=
EXTT13=
EXTT14=
EXTT15=
EXTT16=
EXTT17=
EXTT18=
EXTT19=
EXTT20=
PLAYORDER=
